<svg width="33" height="24" viewBox="0 0 33 24" fill="none" xmlns="http://www.w3.org/2000/svg">
<path d="M0.999999 4.94872L0.999996 21.9355C0.999996 22.5234 1.50777 23 2.13414 23L30.8659 23C31.4922 23 32 22.5234 32 21.9355L32 6.01324C32 5.42532 31.4922 4.94872 30.8659 4.94872L16.5 4.94872M0.999999 4.94872L1 2.06452C1 1.4766 1.50777 1 2.13415 1L12.106 1C12.4218 1 12.7232 1.12356 12.9379 1.34094L16.5 4.94872M0.999999 4.94872L16.5 4.94872M16.689 9.16129L16.689 18.0323M21.4146 13.5968L11.9634 13.5968" stroke="black" stroke-width="2" stroke-linecap="round"/>
</svg>
