<svg width="32" height="26" viewBox="0 0 32 26" fill="none" xmlns="http://www.w3.org/2000/svg">
<path d="M22.6523 9.5698L22.8838 9.86404C24.5765 12.0161 24.4774 15.1488 22.6523 17.1791M29.0363 4.75056C31.6546 10.352 31.6546 16.9043 29.0363 22.5057M25.8443 7.287C27.8423 11.256 27.8423 16.0002 25.8443 19.9692M1 9.74927V16.8947C1 17.2328 1.262 17.507 1.5852 17.507H10.1328C10.2934 17.507 10.4471 17.5761 10.5576 17.6981L16.6735 24.4516C17.0373 24.8533 17.6835 24.584 17.6835 24.0305V2.61348C17.6835 2.06002 17.0373 1.79063 16.6735 2.19239L10.5576 8.94586C10.4471 9.0679 10.2934 9.13702 10.1328 9.13702H1.5852C1.262 9.13702 1 9.41113 1 9.74927Z" stroke="black" stroke-width="2" stroke-linecap="round"/>
</svg>
