<svg width="30" height="30" viewBox="0 0 30 30" fill="none" xmlns="http://www.w3.org/2000/svg">
<circle cx="15" cy="15" r="14" stroke="black" stroke-width="2"/>
<path d="M6.2457 22.1082L11.4322 17.1424C11.7598 16.8288 12.2909 16.8288 12.6185 17.1424L13.1624 17.6631C13.49 17.9768 13.49 18.4853 13.1624 18.799L7.97589 23.7648C7.64829 24.0784 7.11715 24.0784 6.78955 23.7648L6.2457 23.2441C5.9181 22.9304 5.9181 22.4219 6.2457 22.1082Z" fill="black"/>
<path d="M24 12.8406C24 16.6185 20.9349 19.6811 17.1539 19.6811C13.3729 19.6811 10.3079 16.6185 10.3079 12.8406C10.3079 9.06262 13.3729 6 17.1539 6C20.9349 6 24 9.06262 24 12.8406ZM12.0217 12.8406C12.0217 15.6727 14.3195 17.9687 17.1539 17.9687C19.9884 17.9687 22.2862 15.6727 22.2862 12.8406C22.2862 10.0084 19.9884 7.71242 17.1539 7.71242C14.3195 7.71242 12.0217 10.0084 12.0217 12.8406Z" fill="black"/>
</svg>
