<svg width="36" height="37" viewBox="0 0 36 37" fill="none" xmlns="http://www.w3.org/2000/svg">
<mask id="mask0_277_1886" style="mask-type:alpha" maskUnits="userSpaceOnUse" x="4" y="9" width="26" height="28">
<path fill-rule="evenodd" clip-rule="evenodd" d="M13.2648 9.09782C12.4577 9.39568 11.8513 9.97924 11.511 10.7853C11.3876 11.0778 11.0681 11.834 10.8009 12.4658L10.3152 13.6146L7.32842 13.6361L4.34165 13.6576L4.17083 13.8728C4.0265 14.0546 4 14.2046 4 14.8408C4 15.913 3.98784 15.9026 5.29719 15.9531L6.35988 15.9941L6.40128 25.2252L6.44268 34.4563L6.62203 34.8896C7.00342 35.8113 7.53029 36.436 8.24595 36.8149L8.59554 37H16.9586H25.3217L25.7104 36.8102C26.4117 36.468 27.0418 35.7213 27.3839 34.8275C27.5553 34.3797 27.5578 34.2638 27.5987 25.1842V15.9531H28.7028C30.0082 15.9027 30 15.9095 30 14.8653C30 14.2404 29.9351 13.9153 29.7749 13.7377C29.7547 13.7151 28.3761 13.6782 26.7116 13.6556L23.6852 13.6146L22.9543 11.8914C22.2812 10.3044 22.1909 10.1383 21.8107 9.78814C21.5838 9.57907 21.219 9.3206 21 9.21376C20.602 9.01962 20.601 9.01954 17.0828 9.00346C14.3069 8.99082 13.5006 9.01076 13.2648 9.09782ZM20.09 11.3786C20.1674 11.435 20.4317 11.9612 20.6772 12.5479L21.1235 13.6146L19.0617 13.6365C17.9278 13.6485 16.0721 13.6485 14.9381 13.6365L12.8763 13.6146L13.3274 12.5479C13.5755 11.9612 13.8397 11.435 13.9146 11.3786C14.111 11.2307 19.8869 11.2307 20.09 11.3786ZM25.2803 24.7609C25.2803 34.2434 25.2867 34.0949 24.857 34.5482L24.6717 34.7435H17H9.32826L9.14303 34.5482C8.71346 34.095 8.71975 34.239 8.71975 24.8156C8.71975 20.0014 8.74459 16.0379 8.77498 16.0078C8.80528 15.9777 12.5314 15.9531 17.0552 15.9531H25.2803V20.357V24.7609ZM11.4108 19.5795C11.3197 19.6307 11.2178 19.7127 11.1844 19.7617C11.1509 19.8106 11.123 22.3338 11.1223 25.3688C11.1208 31.8635 11.001 31.2152 12.2029 31.2152C12.916 31.2152 13.2401 31.1381 13.3761 30.9362C13.4096 30.8866 13.4369 28.372 13.4369 25.3483C13.4369 22.3246 13.4096 19.8101 13.3761 19.7604C13.242 19.5614 12.9211 19.4815 12.265 19.4839C11.8863 19.4853 11.5019 19.5283 11.4108 19.5795ZM16.1306 19.5795C16.0395 19.6307 15.9376 19.7127 15.9041 19.7617C15.8246 19.878 15.8246 30.8182 15.9041 30.9362C16.0396 31.1373 16.3628 31.2152 17.0618 31.2152C17.687 31.2152 17.8239 31.1902 17.978 31.0479L18.1592 30.8806L18.158 25.3656C18.1572 22.3324 18.1293 19.8101 18.0959 19.7604C17.9618 19.5614 17.6409 19.4815 16.9848 19.4839C16.606 19.4853 16.2217 19.5283 16.1306 19.5795ZM20.7877 19.6445L20.5605 19.8216L20.5618 25.3338C20.5625 28.3654 20.5904 30.8866 20.6239 30.9362C20.7599 31.1381 21.084 31.2152 21.7971 31.2152C22.999 31.2152 22.879 31.8642 22.879 25.364C22.879 20.7262 22.8602 19.8155 22.7616 19.6817C22.6619 19.5466 22.5209 19.5183 21.8295 19.4949C21.0965 19.47 20.9922 19.4851 20.7877 19.6445Z" fill="black"/>
</mask>
<g mask="url(#mask0_277_1886)">
<rect x="-3" y="16" width="40" height="37" fill="black"/>
</g>
<mask id="mask1_277_1886" style="mask-type:alpha" maskUnits="userSpaceOnUse" x="2" y="3" width="30" height="32">
<path fill-rule="evenodd" clip-rule="evenodd" d="M8.50358 6.89619C7.88743 7.49656 7.57077 8.27634 7.58782 9.15114C7.59406 9.46848 7.60973 10.2893 7.62261 10.9752L7.64613 12.2222L4.92632 13.4566L2.20655 14.6912L2.138 14.9572C2.08011 15.182 2.11691 15.3298 2.37567 15.911C2.81177 16.8905 2.79642 16.8859 4.01313 16.3995L5.00063 16.0048L8.79307 24.4209L12.5855 32.8371L12.9256 33.16C13.6489 33.8469 14.3843 34.2032 15.1922 34.2583L15.5869 34.2852L23.2269 30.8837L30.8669 27.4821L31.1449 27.1506C31.6463 26.5527 31.9183 25.6144 31.8672 24.6587C31.8416 24.1799 31.7969 24.073 28.1412 15.7617L24.3866 7.32867L25.3952 6.8796C26.5673 6.30263 26.5625 6.31218 26.1378 5.35824C25.8836 4.78734 25.6921 4.51676 25.4736 4.4196C25.4458 4.40724 24.1714 4.93423 22.6417 5.59062L19.8603 6.78407L18.4917 5.50719C17.2313 4.33116 17.0812 4.21611 16.5915 4.05087C16.2991 3.95219 15.8607 3.86445 15.6172 3.8559C15.1747 3.84044 15.1737 3.84077 11.9531 5.25706C9.41205 6.37459 8.68361 6.72074 8.50358 6.89619ZM15.6664 6.20371C15.7601 6.22379 16.2155 6.59696 16.6784 7.03307L17.52 7.82603L15.6454 8.68464C14.6144 9.15686 12.9192 9.91164 11.8783 10.3618L9.98579 11.1805L9.96403 10.0225C9.95203 9.38564 9.97941 8.79752 10.0249 8.71547C10.1442 8.50043 15.4207 6.15117 15.6664 6.20371ZM25.851 16.318C29.7079 24.9807 29.6534 24.8424 29.4452 25.4313L29.3554 25.6851L22.3469 28.8054L15.3384 31.9258L15.0898 31.8228C14.513 31.5835 14.5773 31.7124 10.7445 23.1037C8.78638 18.7058 7.19696 15.0748 7.2125 15.035C7.22794 14.9951 10.6219 13.4571 14.7546 11.6171L22.2686 8.27168L24.0598 12.2948L25.851 16.318ZM11.0732 17.2257C11.0108 17.3096 10.951 17.4259 10.9404 17.4843C10.9298 17.5426 11.9305 19.859 13.1643 22.6319C15.8046 28.5657 15.4314 28.0222 16.5295 27.5333C17.1809 27.2433 17.4456 27.0411 17.4878 26.8012C17.4982 26.7423 16.5004 24.434 15.2705 21.6717C14.0407 18.9095 12.9929 16.6234 12.9422 16.5917C12.7387 16.4644 12.4131 16.5219 11.8147 16.791C11.4692 16.9463 11.1356 17.1419 11.0732 17.2257ZM15.3849 15.3061C15.3225 15.3899 15.2627 15.5062 15.2521 15.5646C15.2268 15.7032 19.6766 25.6976 19.7972 25.773C20.0028 25.9017 20.3297 25.8413 20.9682 25.557C21.5394 25.3027 21.6543 25.2243 21.7372 25.0315L21.8347 24.805L19.5905 19.7673C18.3561 16.9966 17.3046 14.7037 17.2539 14.672C17.0504 14.5448 16.7248 14.6023 16.1264 14.8713C15.7809 15.0266 15.4473 15.2222 15.3849 15.3061ZM19.6658 13.4712L19.5303 13.7254L21.7735 18.7605C23.0072 21.5298 24.0581 23.8216 24.1089 23.8533C24.3153 23.9825 24.6427 23.921 25.2942 23.631C26.3921 23.1422 26.5465 23.7838 23.9026 17.8456C22.0163 13.6088 21.6287 12.7845 21.4842 12.7024C21.3382 12.6195 21.1979 12.6509 20.5568 12.9108C19.877 13.1862 19.7878 13.2424 19.6658 13.4712Z" fill="black"/>
</mask>
<g mask="url(#mask1_277_1886)">
<rect x="-14.423" y="2.76643" width="48" height="20" transform="rotate(-24 -14.423 2.76643)" fill="black"/>
</g>
<path d="M7 17H27" stroke="black" stroke-width="2"/>
</svg>
