<svg width="26" height="28" viewBox="0 0 26 28" fill="none" xmlns="http://www.w3.org/2000/svg">
<path fill-rule="evenodd" clip-rule="evenodd" d="M9.26478 0.0978191C8.4577 0.395676 7.85126 0.979244 7.51102 1.78534C7.38765 2.07778 7.06811 2.834 6.80091 3.46581L6.31519 4.61457L3.32842 4.63607L0.341648 4.65765L0.170826 4.8728C0.0265011 5.05463 4.05528e-06 5.20462 4.05528e-06 5.84079C4.05528e-06 6.91299 -0.0121679 6.90257 1.29719 6.95311L2.35988 6.99414L2.40128 16.2252L2.44268 25.4563L2.62203 25.8897C3.00342 26.8113 3.53029 27.436 4.24595 27.8149L4.59554 28H12.9586H21.3217L21.7104 27.8102C22.4117 27.468 23.0418 26.7213 23.3839 25.8275C23.5553 25.3797 23.5578 25.2638 23.5987 16.1842L23.6401 6.99414L24.7028 6.95311C26.0082 6.90273 26 6.90954 26 5.86532C26 5.2404 25.9351 4.9153 25.7749 4.73765C25.7547 4.71509 24.3761 4.67816 22.7116 4.6556L19.6852 4.61457L18.9543 2.89143C18.2812 1.30442 18.1909 1.13827 17.8107 0.78814C17.5838 0.579066 17.219 0.320596 17 0.213761C16.602 0.019621 16.601 0.0195393 13.0828 0.00345666C10.3068 -0.00917968 9.5006 0.0107596 9.26478 0.0978191ZM16.09 2.3786C16.1674 2.43505 16.4317 2.96118 16.6772 3.54787L17.1235 4.61457L15.0617 4.63648C13.9278 4.64854 12.0721 4.64854 10.9381 4.63648L8.87627 4.61457L9.32738 3.54787C9.57545 2.96118 9.83968 2.43505 9.91461 2.3786C10.111 2.23065 15.8869 2.23065 16.09 2.3786ZM21.2803 15.7609C21.2803 25.2434 21.2867 25.0949 20.857 25.5482L20.6717 25.7435H13H5.32826L5.14303 25.5482C4.71346 25.095 4.71975 25.239 4.71975 15.8156C4.71975 11.0014 4.74459 7.03788 4.77498 7.00784C4.80528 6.97773 8.5314 6.95311 13.0552 6.95311H21.2803V15.7609ZM7.41083 10.5795C7.31975 10.6307 7.21782 10.7127 7.18437 10.7617C7.15091 10.8106 7.12301 13.3338 7.12226 16.3688C7.12077 22.8635 7.00096 22.2152 8.20292 22.2152C8.91602 22.2152 9.2401 22.1381 9.37615 21.9362C9.4096 21.8866 9.43692 19.372 9.43692 16.3483C9.43692 13.3246 9.4096 10.8101 9.37615 10.7604C9.24201 10.5614 8.92115 10.4815 8.26502 10.4839C7.88628 10.4853 7.50191 10.5283 7.41083 10.5795ZM12.1306 10.5795C12.0395 10.6307 11.9376 10.7127 11.9041 10.7617C11.8246 10.878 11.8246 21.8182 11.9041 21.9362C12.0396 22.1373 12.3628 22.2152 13.0618 22.2152C13.687 22.2152 13.8239 22.1902 13.978 22.0479L14.1592 21.8806L14.158 16.3656C14.1572 13.3324 14.1293 10.8101 14.0959 10.7604C13.9618 10.5614 13.6409 10.4815 12.9848 10.4839C12.606 10.4853 12.2217 10.5283 12.1306 10.5795ZM16.7877 10.6445L16.5605 10.8216L16.5618 16.3338C16.5625 19.3654 16.5904 21.8866 16.6239 21.9362C16.7599 22.1381 17.084 22.2152 17.7971 22.2152C18.999 22.2152 18.879 22.8642 18.879 16.364C18.879 11.7262 18.8602 10.8155 18.7616 10.6817C18.6619 10.5466 18.5209 10.5183 17.8295 10.4949C17.0965 10.47 16.9922 10.4851 16.7877 10.6445Z" fill="black"/>
</svg>
