<svg width="136" height="182" viewBox="0 0 136 182" fill="none" xmlns="http://www.w3.org/2000/svg">
<path fill-rule="evenodd" clip-rule="evenodd" d="M49.02 1.59239C44.399 3.97239 41 9.20638 41 13.9444V17.7084L25.25 18.0464C10.511 18.3624 9.28399 18.5384 6.13699 20.7834C1.74699 23.9134 0 28.3304 0 36.2954C0 41.8534 0.314992 42.9914 2.22299 44.3274C3.44499 45.1834 5.60199 45.8844 7.01599 45.8844H9.58701L13.791 109.134C18.364 177.923 17.837 174.432 24.384 179.322C27.044 181.309 28.564 181.395 66.322 181.692C92.541 181.898 106.732 181.639 109.224 180.91C111.508 180.241 113.991 178.452 115.647 176.28L118.346 172.741L122.629 109.562C124.984 74.8144 126.931 46.2724 126.956 46.1344C126.98 45.9964 128.264 45.8844 129.809 45.8844C135.354 45.8844 136.26 44.2004 135.86 34.6324C135.528 26.6934 135.268 25.7734 132.557 22.9434C128.504 18.7134 124.655 17.8964 108.75 17.8904L95 17.8844V13.8344C95 8.85338 92.993 4.78539 89.301 2.28239C86.872 0.63639 84.243 0.345387 69.5 0.0923874C54.746 -0.161613 52.04 0.0373871 49.02 1.59239ZM84.066 9.91939C85.407 10.6374 86 12.0174 86 14.4194V17.8844H68H50V14.9414C50 9.75339 52.625 8.88439 68.288 8.88439C75.918 8.88439 83 9.34939 84.066 9.91939ZM124 28.1724C125.878 29.1174 126.577 30.3574 126.81 33.1574L127.121 36.8844H68.529C17.331 36.8844 9.86399 36.6944 9.36099 35.3824C8.38499 32.8384 9.944 28.8444 12.28 27.9044C13.501 27.4134 38.575 26.9894 68 26.9624C109.076 26.9254 122.081 27.2064 124 28.1724ZM117.645 48.6344C117.362 50.1474 115.418 77.9294 113.325 110.374C109.984 162.179 109.306 169.578 107.76 171.124C106.142 172.742 102.945 172.884 68.071 172.884C35.865 172.884 29.919 172.66 28.658 171.399C27.769 170.51 26.923 167.001 26.548 162.649C25.677 152.53 19 51.4484 19 48.3854V45.8844H68.579H118.159L117.645 48.6344ZM38.102 64.8004C37.098 65.4354 36.751 67.6164 36.868 72.5344C37.134 83.6874 41.009 150.28 41.466 151.569C41.698 152.22 42.771 153.226 43.851 153.804C45.365 154.614 46.315 154.45 48.001 153.084L50.187 151.314L47.935 109.849C46.696 87.0434 45.315 67.3724 44.866 66.1344C44.013 63.7824 40.731 63.1354 38.102 64.8004ZM65.112 65.2494C64.297 66.2314 64.052 78.8014 64.239 109.999L64.5 153.384L67.451 153.72C73.001 154.351 73 154.358 73 109.127C73 82.5194 72.631 67.0624 71.965 65.8184C70.768 63.5824 66.771 63.2504 65.112 65.2494ZM92.092 65.2734C90.616 67.0524 85.84 149.682 87.078 152.016C88.242 154.209 90.051 154.788 92.68 153.811C95.498 152.763 95.479 152.935 98.019 105.547C99.616 75.7464 99.827 66.3814 98.928 65.2974C97.427 63.4884 93.584 63.4754 92.092 65.2734Z" fill="black"/>
</svg>
