<svg width="136" height="191" viewBox="0 0 136 191" fill="none" xmlns="http://www.w3.org/2000/svg">
<path fill-rule="evenodd" clip-rule="evenodd" d="M56.879 3.86464C49.388 5.98664 42.114 8.47164 40.715 9.38864C35.852 12.5746 34.137 19.1096 36.143 26.8076C36.396 27.7776 33.583 28.9796 26.5 30.9276C21 32.4406 14.608 34.1986 12.295 34.8346C2.44697 37.5416 -0.982996 44.0126 1.679 54.8616C3.491 62.2476 4.47597 63.9376 6.96697 63.9376C7.91497 63.9376 36.43 56.5126 70.334 47.4376C104.238 38.3626 132.192 30.9376 132.454 30.9376C132.716 30.9376 133.413 30.0336 134.005 28.9286C134.825 27.3966 134.593 25.3226 133.025 20.1786C130.801 12.8806 129.812 11.2496 126.027 8.64165C122.381 6.12865 116.95 6.55164 103 10.4376C96.125 12.3526 90.234 13.9236 89.908 13.9286C89.583 13.9336 88.805 12.2316 88.181 10.1456C87.556 8.06064 85.695 5.06064 84.044 3.48064C79.428 -0.943357 73.559 -0.860358 56.879 3.86464ZM78.443 11.1606C81.33 15.2826 80.483 16.5706 73.75 18.2966C70.313 19.1776 62.64 21.2266 56.7 22.8516L45.9 25.8046L44.893 23.1566C42.933 18.0016 44.551 16.8236 59.084 12.8176C75.109 8.40064 76.431 8.28764 78.443 11.1606ZM122.429 17.5086C124.017 19.0976 124.634 23.9286 123.25 23.9486C122.837 23.9546 97.534 30.6676 67.021 38.8666C36.507 47.0646 11.195 53.5576 10.771 53.2956C9.52198 52.5236 9.88999 46.2726 11.25 45.1616C12.684 43.9906 115.375 16.1276 118.679 16.0126C119.877 15.9716 121.564 16.6446 122.429 17.5086ZM12.635 70.0106C10.312 71.8376 9.99999 72.7926 9.99999 78.0776C9.99999 84.5316 16.641 171.287 17.55 176.709C18.228 180.753 23.381 186.781 27.702 188.587C32.416 190.556 113.584 190.556 118.298 188.587C123.211 186.534 127.766 180.76 128.44 175.73C129.334 169.057 136 82.2386 136 77.2696C136 73.9066 135.412 72.2586 133.545 70.3926L131.091 67.9376H73.18C16.108 67.9376 15.232 67.9676 12.635 70.0106ZM126.944 79.6876C126.914 81.1996 125.207 103.532 123.15 129.313L119.412 176.187L116.65 178.563L113.888 180.938H73.491C45.597 180.938 32.327 180.588 30.615 179.808C29.251 179.187 27.68 177.499 27.124 176.058C26.293 173.902 18.964 86.6146 18.992 79.1876L19 76.9376H73H127L126.944 79.6876ZM42.571 87.5086C41.707 88.3736 41.012 89.3856 41.026 89.7586C41.041 90.1326 42.119 108.111 43.422 129.71C45.013 156.076 46.195 169.468 47.019 170.46C48.73 172.522 52.733 172.306 53.92 170.087C55.305 167.499 50.619 89.3876 48.959 87.3886C47.383 85.4886 44.538 85.5426 42.571 87.5086ZM69.571 87.5086C68.195 88.8846 68 94.0376 68 128.938C68 163.838 68.195 168.991 69.571 170.367C71.443 172.238 74.139 172.399 75.8 170.738C77.524 169.014 77.524 88.8616 75.8 87.1376C74.139 85.4766 71.443 85.6376 69.571 87.5086ZM96.925 87.5276C95.012 89.8326 90.414 168.527 92.075 170.529C93.568 172.328 97.415 172.348 98.895 170.565C99.604 169.71 100.769 156.394 101.978 135.315C103.048 116.683 104.173 98.6656 104.48 95.2776C104.917 90.4406 104.696 88.7766 103.447 87.5276C101.415 85.4946 98.612 85.4946 96.925 87.5276Z" fill="black"/>
</svg>
